<?xml version="1.0" encoding="UTF-8" standalone="no"?>
<!DOCTYPE svg PUBLIC "-//W3C//DTD SVG 1.1//EN" "http://www.w3.org/Graphics/SVG/1.1/DTD/svg11.dtd">
<svg width="100%" height="100%" viewBox="0 0 50 50" version="1.1" xmlns="http://www.w3.org/2000/svg" xmlns:xlink="http://www.w3.org/1999/xlink" xml:space="preserve" xmlns:serif="http://www.serif.com/" style="fill-rule:evenodd;clip-rule:evenodd;stroke-linejoin:round;stroke-miterlimit:1.41421;">
    <path d="M50,12.5C50,5.601 44.399,0 37.5,0L12.5,0C5.601,0 0,5.601 0,12.5L0,37.5C0,44.399 5.601,50 12.5,50L37.5,50C44.399,50 50,44.399 50,37.5L50,12.5Z" style="fill:rgb(61,86,204);"/>
    <g transform="matrix(0.783201,0,0,0.783201,4.00034,4.00033)">
        <path d="M48.831,15.334C41.748,3.697 31.078,11.793 31.078,11.793C30.386,12.316 29.11,12.746 28.243,12.748L25.385,12.75C24.518,12.751 23.242,12.321 22.551,11.798C22.551,11.798 11.88,3.7 4.796,15.337C-2.286,26.97 0.568,39.639 0.568,39.639C1.068,42.741 2.716,44.811 5.826,44.551C8.927,44.292 15.658,36.197 15.658,36.197C16.214,35.53 17.379,34.985 18.244,34.985L35.378,34.982C36.244,34.982 37.408,35.527 37.963,36.194C37.963,36.194 44.695,44.289 47.801,44.548C50.907,44.808 52.559,42.736 53.056,39.636C53.055,39.636 55.914,26.969 48.831,15.334ZM20.374,24.806L16.7,24.806L16.7,28.347C16.7,28.347 15.922,28.941 14.718,28.926C13.516,28.908 12.972,28.278 12.972,28.278L12.972,24.807L9.502,24.807C9.502,24.807 9.069,24.363 8.953,23.194C8.839,22.025 9.432,21.08 9.432,21.08L13.107,21.08L13.107,17.406C13.107,17.406 13.863,17.001 14.95,17.032C16.038,17.066 16.835,17.475 16.835,17.475L16.82,21.079L20.29,21.079C20.29,21.079 20.896,21.857 20.946,22.797C20.996,23.738 20.374,24.806 20.374,24.806ZM37.226,28.842C35.617,28.842 34.32,27.541 34.32,25.934C34.32,24.324 35.617,23.026 37.226,23.026C38.828,23.026 40.135,24.324 40.135,25.934C40.135,27.542 38.828,28.842 37.226,28.842ZM37.226,20.841C35.617,20.841 34.32,19.541 34.32,17.934C34.32,16.324 35.617,15.026 37.226,15.026C38.828,15.026 40.135,16.324 40.135,17.934C40.135,19.542 38.828,20.841 37.226,20.841ZM44.468,25.136C42.859,25.136 41.562,23.836 41.562,22.228C41.562,20.619 42.859,19.32 44.468,19.32C46.07,19.32 47.377,20.619 47.377,22.228C47.377,23.836 46.07,25.136 44.468,25.136Z" style="fill:white;fill-rule:nonzero;"/>
    </g>
</svg>